<?xml version="1.0" encoding="UTF-8" standalone="no"?>
<!DOCTYPE svg PUBLIC "-//W3C//DTD SVG 1.1//EN"
 "http://www.w3.org/Graphics/SVG/1.1/DTD/svg11.dtd">
<!-- Generated by graphviz version 4.0.0 (20220529.0937)
 -->
<!-- Title: G Pages: 1 -->
<svg width="769pt" height="158pt"
 viewBox="0.00 0.00 769.00 158.00" xmlns="http://www.w3.org/2000/svg" xmlns:xlink="http://www.w3.org/1999/xlink">
<g id="graph0" class="graph" transform="scale(1 1) rotate(0) translate(4 154)">
<title>G</title>
<polygon fill="white" stroke="transparent" points="-4,4 -4,-154 765,-154 765,4 -4,4"/>
<!-- tbl -->
<g id="node1" class="node">
<title>tbl</title>
<polygon fill="none" stroke="black" points="11.5,-122 11.5,-143 124.5,-143 124.5,-122 11.5,-122"/>
<text text-anchor="start" x="28.5" y="-128.8" font-family="Helvetica,Arial,sans-serif" font-size="14.00">Identificador</text>
<polygon fill="none" stroke="black" points="126.5,-122 126.5,-143 568.5,-143 568.5,-122 126.5,-122"/>
<text text-anchor="start" x="330.5" y="-128.8" font-family="Helvetica,Arial,sans-serif" font-size="14.00">Valor</text>
<polygon fill="none" stroke="black" points="570.5,-122 570.5,-143 659.5,-143 659.5,-122 570.5,-122"/>
<text text-anchor="start" x="600.5" y="-128.8" font-family="Helvetica,Arial,sans-serif" font-size="14.00">Tipo</text>
<polygon fill="none" stroke="black" points="661.5,-122 661.5,-143 750.5,-143 750.5,-122 661.5,-122"/>
<text text-anchor="start" x="695" y="-128.8" font-family="Helvetica,Arial,sans-serif" font-size="14.00">Rol</text>
<polygon fill="none" stroke="black" points="11.5,-99 11.5,-120 124.5,-120 124.5,-99 11.5,-99"/>
<text text-anchor="start" x="14.5" y="-105.8" font-family="Helvetica,Arial,sans-serif" font-size="14.00">PRINT_MATRIX</text>
<polygon fill="none" stroke="black" points="126.5,-99 126.5,-120 568.5,-120 568.5,-99 126.5,-99"/>
<text text-anchor="start" x="345.5" y="-105.8" font-family="Helvetica,Arial,sans-serif" font-size="14.00"> </text>
<polygon fill="none" stroke="black" points="570.5,-99 570.5,-120 659.5,-120 659.5,-99 570.5,-99"/>
<text text-anchor="start" x="573.5" y="-105.8" font-family="Helvetica,Arial,sans-serif" font-size="14.00">SUBRUTINA</text>
<polygon fill="none" stroke="black" points="661.5,-99 661.5,-120 750.5,-120 750.5,-99 661.5,-99"/>
<text text-anchor="start" x="664.5" y="-105.8" font-family="Helvetica,Arial,sans-serif" font-size="14.00">SUBRUTINA</text>
<polygon fill="none" stroke="black" points="11.5,-76 11.5,-97 124.5,-97 124.5,-76 11.5,-76"/>
<text text-anchor="start" x="52.5" y="-82.8" font-family="Helvetica,Arial,sans-serif" font-size="14.00">ARR</text>
<polygon fill="none" stroke="black" points="126.5,-76 126.5,-97 568.5,-97 568.5,-76 126.5,-76"/>
<text text-anchor="start" x="129.5" y="-82.8" font-family="Helvetica,Arial,sans-serif" font-size="14.00"> 0 0 0 1 2 3 0 0 0 1 2 3 0 0 0 1 2 3 1 1 1 1 1 1 2 2 2 1 2 2 3 3 3 1 2 3 </text>
<polygon fill="none" stroke="black" points="570.5,-76 570.5,-97 659.5,-97 659.5,-76 570.5,-76"/>
<text text-anchor="start" x="603" y="-82.8" font-family="Helvetica,Arial,sans-serif" font-size="14.00">INT</text>
<polygon fill="none" stroke="black" points="661.5,-76 661.5,-97 750.5,-97 750.5,-76 661.5,-76"/>
<text text-anchor="start" x="670" y="-82.8" font-family="Helvetica,Arial,sans-serif" font-size="14.00">ARREGLO</text>
<polygon fill="none" stroke="black" points="11.5,-53 11.5,-74 124.5,-74 124.5,-53 11.5,-53"/>
<text text-anchor="start" x="65.5" y="-59.8" font-family="Helvetica,Arial,sans-serif" font-size="14.00">I</text>
<polygon fill="none" stroke="black" points="126.5,-53 126.5,-74 568.5,-74 568.5,-53 126.5,-53"/>
<text text-anchor="start" x="341" y="-59.8" font-family="Helvetica,Arial,sans-serif" font-size="14.00"> 6</text>
<polygon fill="none" stroke="black" points="570.5,-53 570.5,-74 659.5,-74 659.5,-53 570.5,-53"/>
<text text-anchor="start" x="603" y="-59.8" font-family="Helvetica,Arial,sans-serif" font-size="14.00">INT</text>
<polygon fill="none" stroke="black" points="661.5,-53 661.5,-74 750.5,-74 750.5,-53 661.5,-53"/>
<text text-anchor="start" x="669.5" y="-59.8" font-family="Helvetica,Arial,sans-serif" font-size="14.00">VARIABLE</text>
<polygon fill="none" stroke="black" points="11.5,-30 11.5,-51 124.5,-51 124.5,-30 11.5,-30"/>
<text text-anchor="start" x="64" y="-36.8" font-family="Helvetica,Arial,sans-serif" font-size="14.00">J</text>
<polygon fill="none" stroke="black" points="126.5,-30 126.5,-51 568.5,-51 568.5,-30 126.5,-30"/>
<text text-anchor="start" x="341" y="-36.8" font-family="Helvetica,Arial,sans-serif" font-size="14.00"> 6</text>
<polygon fill="none" stroke="black" points="570.5,-30 570.5,-51 659.5,-51 659.5,-30 570.5,-30"/>
<text text-anchor="start" x="603" y="-36.8" font-family="Helvetica,Arial,sans-serif" font-size="14.00">INT</text>
<polygon fill="none" stroke="black" points="661.5,-30 661.5,-51 750.5,-51 750.5,-30 661.5,-30"/>
<text text-anchor="start" x="669.5" y="-36.8" font-family="Helvetica,Arial,sans-serif" font-size="14.00">VARIABLE</text>
<polygon fill="none" stroke="black" points="11.5,-7 11.5,-28 124.5,-28 124.5,-7 11.5,-7"/>
<text text-anchor="start" x="48" y="-13.8" font-family="Helvetica,Arial,sans-serif" font-size="14.00">ARR1</text>
<polygon fill="none" stroke="black" points="126.5,-7 126.5,-28 568.5,-28 568.5,-7 126.5,-7"/>
<text text-anchor="start" x="129.5" y="-13.8" font-family="Helvetica,Arial,sans-serif" font-size="14.00"> 0 0 0 0 0 0 0 0 0 0 0 0 0 0 0 0 0 0 0 0 0 0 0 0 0 0 0 0 0 0 0 0 0 0 0 0 </text>
<polygon fill="none" stroke="black" points="570.5,-7 570.5,-28 659.5,-28 659.5,-7 570.5,-7"/>
<text text-anchor="start" x="603" y="-13.8" font-family="Helvetica,Arial,sans-serif" font-size="14.00">INT</text>
<polygon fill="none" stroke="black" points="661.5,-7 661.5,-28 750.5,-28 750.5,-7 661.5,-7"/>
<text text-anchor="start" x="670" y="-13.8" font-family="Helvetica,Arial,sans-serif" font-size="14.00">ARREGLO</text>
<polygon fill="none" stroke="black" points="8,-4 8,-146 753,-146 753,-4 8,-4"/>
</g>
</g>
</svg>
