<?xml version="1.0" encoding="UTF-8" standalone="no"?>
<!DOCTYPE svg PUBLIC "-//W3C//DTD SVG 1.1//EN"
 "http://www.w3.org/Graphics/SVG/1.1/DTD/svg11.dtd">
<!-- Generated by graphviz version 4.0.0 (20220529.0937)
 -->
<!-- Title: G Pages: 1 -->
<svg width="1132pt" height="89pt"
 viewBox="0.00 0.00 1132.00 89.00" xmlns="http://www.w3.org/2000/svg" xmlns:xlink="http://www.w3.org/1999/xlink">
<g id="graph0" class="graph" transform="scale(1 1) rotate(0) translate(4 85)">
<title>G</title>
<polygon fill="white" stroke="transparent" points="-4,4 -4,-85 1128,-85 1128,4 -4,4"/>
<!-- tbl -->
<g id="node1" class="node">
<title>tbl</title>
<polygon fill="none" stroke="black" points="11,-52.5 11,-73.5 81,-73.5 81,-52.5 11,-52.5"/>
<text text-anchor="start" x="14" y="-59.3" font-family="Helvetica,Arial,sans-serif" font-size="14.00">Tipo Error</text>
<polygon fill="none" stroke="black" points="83,-52.5 83,-73.5 1017,-73.5 1017,-52.5 83,-52.5"/>
<text text-anchor="start" x="512" y="-59.3" font-family="Helvetica,Arial,sans-serif" font-size="14.00">Descripcion</text>
<polygon fill="none" stroke="black" points="1019,-52.5 1019,-73.5 1048,-73.5 1048,-52.5 1019,-52.5"/>
<text text-anchor="start" x="1022" y="-59.3" font-family="Helvetica,Arial,sans-serif" font-size="14.00">Fila</text>
<polygon fill="none" stroke="black" points="1050,-52.5 1050,-73.5 1113,-73.5 1113,-52.5 1050,-52.5"/>
<text text-anchor="start" x="1053" y="-59.3" font-family="Helvetica,Arial,sans-serif" font-size="14.00">Columna</text>
<polygon fill="none" stroke="black" points="11,-29.5 11,-50.5 81,-50.5 81,-29.5 11,-29.5"/>
<text text-anchor="start" x="16.5" y="-36.3" font-family="Helvetica,Arial,sans-serif" font-size="14.00">sintáctica</text>
<polygon fill="none" stroke="black" points="83,-29.5 83,-50.5 1017,-50.5 1017,-29.5 83,-29.5"/>
<text text-anchor="start" x="86" y="-36.3" font-family="Helvetica,Arial,sans-serif" font-size="14.00"> extraneous input &#39;(&#39; expecting {&#39;call&#39;, &#39;implicit&#39;, &#39;allocate&#39;, &#39;deallocate&#39;, &#39;if&#39;, &#39;do&#39;, &#39;exit&#39;, &#39;cycle&#39;, &#39;print&#39;, &#39;integer&#39;, &#39;real&#39;, &#39;complex&#39;, &#39;character&#39;, &#39;logical&#39;, IDEN}</text>
<polygon fill="none" stroke="black" points="1019,-29.5 1019,-50.5 1048,-50.5 1048,-29.5 1019,-29.5"/>
<text text-anchor="start" x="1029" y="-36.3" font-family="Helvetica,Arial,sans-serif" font-size="14.00">5</text>
<polygon fill="none" stroke="black" points="1050,-29.5 1050,-50.5 1113,-50.5 1113,-29.5 1050,-29.5"/>
<text text-anchor="start" x="1073" y="-36.3" font-family="Helvetica,Arial,sans-serif" font-size="14.00">28</text>
<polygon fill="none" stroke="black" points="11,-6.5 11,-27.5 81,-27.5 81,-6.5 11,-6.5"/>
<text text-anchor="start" x="16.5" y="-13.3" font-family="Helvetica,Arial,sans-serif" font-size="14.00">sintáctica</text>
<polygon fill="none" stroke="black" points="83,-6.5 83,-27.5 1017,-27.5 1017,-6.5 83,-6.5"/>
<text text-anchor="start" x="451" y="-13.3" font-family="Helvetica,Arial,sans-serif" font-size="14.00"> no viable alternative at input &#39;n,&#39;</text>
<polygon fill="none" stroke="black" points="1019,-6.5 1019,-27.5 1048,-27.5 1048,-6.5 1019,-6.5"/>
<text text-anchor="start" x="1029" y="-13.3" font-family="Helvetica,Arial,sans-serif" font-size="14.00">5</text>
<polygon fill="none" stroke="black" points="1050,-6.5 1050,-27.5 1113,-27.5 1113,-6.5 1050,-6.5"/>
<text text-anchor="start" x="1073" y="-13.3" font-family="Helvetica,Arial,sans-serif" font-size="14.00">32</text>
<polygon fill="none" stroke="black" points="8,-4 8,-77 1116,-77 1116,-4 8,-4"/>
</g>
</g>
</svg>
